<svg width="26" height="32" viewBox="0 0 26 32" fill="none" xmlns="http://www.w3.org/2000/svg">
<g clip-path="url(#clip0_169832_635)">
<path d="M13.005 1C19.435 1 24.675 6.23 24.675 12.67C24.675 19.68 15.545 28.39 13.005 30.67C10.465 28.39 1.33502 19.68 1.33502 12.67C1.33502 6.23 6.56502 1 13.005 1ZM13.005 0C6.00502 0 0.335022 5.67 0.335022 12.67C0.335022 21.34 13.005 32 13.005 32C13.005 32 25.675 21.33 25.675 12.67C25.665 5.67 19.995 0 13.005 0Z" fill="#70E61C"/>
<path d="M13.005 8C15.025 8 16.675 9.64 16.675 11.67C16.675 13.7 15.035 15.34 13.005 15.34C10.975 15.34 9.33502 13.7 9.33502 11.67C9.33502 9.64 10.975 8 13.005 8ZM13.005 7C10.425 7 8.33502 9.09 8.33502 11.67C8.33502 14.25 10.425 16.34 13.005 16.34C15.585 16.34 17.675 14.25 17.675 11.67C17.675 9.09 15.585 7 13.005 7Z" fill="#70E61C"/>
</g>
<defs>
<clipPath id="clip0_169832_635">
<rect width="25.33" height="32" fill="white" transform="translate(0.335022)"/>
</clipPath>
</defs>
</svg>
