<svg width="1440" height="1079" viewBox="0 0 1440 1079" fill="none" xmlns="http://www.w3.org/2000/svg">
<path d="M6200 520C5400 650 3900 825 2600 915C2140 855 1785 808 1545 780C1330 805 1030 890 680.9 967.3C402.9 1030.3 150.1 1063 -2300 1130C-2680 900 -2580 650 -2150 460C-1760 350 -260 -150 145 308C300 368 436 392 567.5 385C820 374 1020 315 1235 258C1780 150 3900 230 6200 520Z" fill="url(#paint0_radial_11_221)"/>
<defs>
<radialGradient id="paint0_radial_11_221" cx="0" cy="0" r="1" gradientUnits="userSpaceOnUse" gradientTransform="translate(672 42.5) rotate(82.2154) scale(887.756 1492.19)">
<stop offset="0.00372417" stop-color="#1A2743"/>
<stop offset="0.135417" stop-color="#27334B"/>
<stop offset="0.719125" stop-color="#141D2F"/>
</radialGradient>
</defs>
</svg>
