<svg width="33" height="32" viewBox="0 0 33 32" fill="none" xmlns="http://www.w3.org/2000/svg">
<g clip-path="url(#clip0_105102_3284)">
<path d="M16.493 18.4443C18.0675 18.4443 19.3439 17.1674 19.3439 15.5922C19.3439 14.017 18.0675 12.74 16.493 12.74C14.9185 12.74 13.6421 14.017 13.6421 15.5922C13.6421 17.1674 14.9185 18.4443 16.493 18.4443Z" fill="#61DAFB"/>
<path d="M32.4861 15.5921C32.4861 13.3521 29.8577 11.4043 25.769 10.2356C26.7981 6.1034 26.4365 2.84775 24.4896 1.7347C22.5426 0.607748 19.5526 1.92949 16.493 4.87905C13.4335 1.91557 10.4435 0.607748 8.49652 1.7347C6.88331 2.66688 6.28531 5.0321 6.82768 8.39905C6.92503 8.99731 7.0641 9.60949 7.21708 10.2495C3.12842 11.4182 0.5 13.366 0.5 15.606C0.5 17.846 3.12842 19.7799 7.21708 20.9625C7.0641 21.5886 6.92503 22.2147 6.82768 22.813C6.28531 26.1799 6.88331 28.5451 8.49652 29.4773C8.96936 29.7556 9.51173 29.8947 10.1097 29.8947C11.5282 29.8947 13.2388 29.1156 15.1023 27.5991C15.5613 27.2234 16.0341 26.7921 16.493 26.3469C16.952 26.7921 17.4248 27.2234 17.8837 27.5991C19.7473 29.1156 21.4578 29.8947 22.8764 29.8947C23.4744 29.8947 24.0167 29.7556 24.4896 29.4773C26.1028 28.5451 26.7008 26.1799 26.1723 22.813C26.075 22.2147 25.9359 21.6025 25.7829 20.9625C29.8716 19.7938 32.5 17.846 32.5 15.606L32.4861 15.5921ZM23.7942 2.93123C25.0458 3.6547 25.324 6.29818 24.42 9.88775C23.1128 9.58166 21.6804 9.35905 20.1645 9.21992C19.2884 7.98166 18.3705 6.8547 17.4665 5.86688C19.5804 3.82166 21.5413 2.70862 22.8903 2.70862C23.2379 2.70862 23.5439 2.77818 23.8081 2.93123H23.7942ZM20.9572 18.166C20.4565 19.0147 19.942 19.8495 19.4135 20.6286C18.4817 20.6982 17.5083 20.7399 16.507 20.7399C15.5056 20.7399 14.5322 20.6982 13.6004 20.6286C13.0719 19.8495 12.5435 19.0147 12.0567 18.166C11.5561 17.3034 11.111 16.4547 10.6938 15.5921C11.111 14.7295 11.5561 13.8808 12.0567 13.0182C12.5574 12.1417 13.0858 11.3208 13.6004 10.5556C14.5322 10.486 15.5056 10.4443 16.507 10.4443C17.5083 10.4443 18.4817 10.486 19.4135 10.5556C19.942 11.3208 20.4565 12.1417 20.9572 13.0182C21.4439 13.8669 21.9029 14.7295 22.3201 15.5921C21.9168 16.4408 21.4718 17.2895 20.9572 18.166ZM23.0432 17.2199C23.4326 18.1521 23.7664 19.0564 24.0445 19.9469C23.1545 20.1417 22.1949 20.3225 21.1797 20.4477C21.5135 19.933 21.8333 19.4043 22.1532 18.8617C22.4731 18.3191 22.7651 17.7625 23.0432 17.2199ZM16.493 24.3156C15.8672 23.6338 15.2414 22.8825 14.6295 22.0756C15.2414 22.1034 15.8533 22.1173 16.493 22.1173C17.1328 22.1173 17.7447 22.1034 18.3566 22.0756C17.7447 22.8825 17.1189 23.6199 16.493 24.3156ZM11.8064 20.4477C10.7912 20.3225 9.83159 20.1556 8.94155 19.9469C9.21969 19.0564 9.55345 18.1521 9.94285 17.2199C10.221 17.7625 10.513 18.3191 10.8329 18.8617C11.1528 19.4043 11.4726 19.933 11.8064 20.4477ZM9.94285 13.9504C9.55345 13.0182 9.21969 12.1138 8.94155 11.2234C9.83159 11.0286 10.7912 10.8477 11.8064 10.7225C11.4726 11.2373 11.1528 11.766 10.8329 12.3086C10.513 12.8512 10.221 13.3938 9.94285 13.9504ZM16.493 6.8547C17.105 7.52253 17.7308 8.27383 18.3566 9.0947C17.7447 9.06688 17.1328 9.05297 16.493 9.05297C15.8533 9.05297 15.2414 9.06688 14.6295 9.0947C15.2553 8.27383 15.8672 7.52253 16.493 6.8547ZM22.1532 12.3225C21.8333 11.7799 21.5135 11.2512 21.1797 10.7364C22.1949 10.8617 23.1545 11.0286 24.0445 11.2373C23.7803 12.1138 23.4465 13.0182 23.0432 13.9643C22.7651 13.4217 22.4591 12.8651 22.1532 12.3225ZM8.19057 8.17644C7.75945 5.4634 8.12103 3.55731 9.19187 2.94514C9.45611 2.7921 9.76206 2.72253 10.1097 2.72253C11.4587 2.72253 13.4196 3.83557 15.5335 5.88079C14.6156 6.86862 13.7116 7.99557 12.8355 9.23383C11.3196 9.37296 9.88722 9.59557 8.57996 9.90166C8.42699 9.31731 8.30183 8.73296 8.21838 8.19036L8.19057 8.17644ZM1.8907 15.5921C1.8907 14.1451 4.03238 12.5869 7.59257 11.5712C7.99587 12.8651 8.52434 14.2147 9.15015 15.5921C8.52434 16.9556 7.99587 18.3051 7.59257 19.613C4.04628 18.5973 1.8907 17.053 1.8907 15.5921ZM14.2262 26.486C12.0984 28.2112 10.2627 28.8512 9.19187 28.2391C8.12103 27.6269 7.75945 25.7069 8.19057 23.0077C8.27401 22.4512 8.41308 21.8808 8.55215 21.2964C9.85941 21.6025 11.2918 21.8251 12.8077 21.9643C13.6838 23.1886 14.5878 24.3295 15.5056 25.3312C15.0745 25.7486 14.6434 26.1521 14.2123 26.4999L14.2262 26.486ZM24.7955 23.0077C25.2266 25.7208 24.8651 27.6269 23.7942 28.2391C22.7234 28.8512 20.8877 28.2112 18.7599 26.486C18.3288 26.1382 17.8977 25.7347 17.4665 25.3173C18.3983 24.3156 19.3023 23.1886 20.1645 21.9643C21.6804 21.8251 23.1128 21.6025 24.42 21.2964C24.573 21.8808 24.6982 22.4651 24.7816 23.0077H24.7955ZM25.3935 19.5991C24.9902 18.3051 24.4618 16.9556 23.8359 15.5782C24.4757 14.1869 24.9902 12.8373 25.3935 11.5573C28.9537 12.573 31.0954 14.1173 31.0954 15.5782C31.0954 17.0391 28.9537 18.5834 25.3935 19.5991Z" fill="#61DAFB"/>
</g>
<defs>
<clipPath id="clip0_105102_3284">
<rect width="32" height="32" fill="white" transform="translate(0.5)"/>
</clipPath>
</defs>
</svg>
