<svg width="1440" height="1379" viewBox="0 -300 1440 1379" fill="none" xmlns="http://www.w3.org/2000/svg">
<path d="M6200 520C5400 650 3900 825 2600 915C2140 855 1785 808 1545 780C1330 805 1030 890 680.9 967.3C402.9 1030.3 150.1 1063 -2600 1130L-2600 422C-1800 422 -680 422 -2 421.5C234 421.5 351.4 430 567.5 385C860 330 1040 260 1160 220C1260 180 1320 80 1375 -35C1404 -96 1425 -150 1440 -185C1780 -250 2240 -360 2700 -470C3900 -620 5120 -760 6200 -860Z" fill="url(#paint0_radial_11_221)"/>
<defs>
<radialGradient id="paint0_radial_11_221" cx="0" cy="0" r="1" gradientUnits="userSpaceOnUse" gradientTransform="translate(672 42.5) rotate(82.2154) scale(887.756 1492.19)">
<stop offset="0.00372417" stop-color="#1A2743"/>
<stop offset="0.135417" stop-color="#27334B"/>
<stop offset="0.719125" stop-color="#141D2F"/>
</radialGradient>
</defs>
</svg>
