<svg width="1440" height="1079" viewBox="0 0 1440 1079" fill="none" xmlns="http://www.w3.org/2000/svg">
<path d="M3600 430C3330 610 2920 770 2360 900C2030 850 1760 805 1545 780C1330 805 1030 890 680.9 967.3C402.9 1030.3 150.1 1063 -1120 1120C-1380 820 -1220 390 -860 150C-590 -60 20 64 145 308C300 368 436 392 567.5 385C820 374 1020 315 1235 258C1580 175 2500 245 3600 430Z" fill="url(#paint0_radial_11_221)"/>
<defs>
<radialGradient id="paint0_radial_11_221" cx="0" cy="0" r="1" gradientUnits="userSpaceOnUse" gradientTransform="translate(672 42.5) rotate(82.2154) scale(887.756 1492.19)">
<stop offset="0.00372417" stop-color="#1A2743"/>
<stop offset="0.135417" stop-color="#27334B"/>
<stop offset="0.719125" stop-color="#141D2F"/>
</radialGradient>
</defs>
</svg>
