<svg width="1440" height="1079" viewBox="0 0 1440 1079" fill="none" xmlns="http://www.w3.org/2000/svg">
<path d="M6200 520C5400 650 3900 825 2600 915C2140 855 1785 808 1545 780C1330 805 1030 890 680.9 967.3C402.9 1030.3 150.1 1063 -2600 1130L-2600 422C-1800 422 -680 422 -2 421.5C234 421.5 351.4 430 567.5 385C960 292 1180 118 1440 2C1780 -24 2240 -48 2700 -78C3900 -170 5120 -390 6200 -560Z" fill="url(#paint0_radial_11_221)"/>
<defs>
<radialGradient id="paint0_radial_11_221" cx="0" cy="0" r="1" gradientUnits="userSpaceOnUse" gradientTransform="translate(672 42.5) rotate(82.2154) scale(887.756 1492.19)">
<stop offset="0.00372417" stop-color="#1A2743"/>
<stop offset="0.135417" stop-color="#27334B"/>
<stop offset="0.719125" stop-color="#141D2F"/>
</radialGradient>
</defs>
</svg>
