<svg width="24" height="32" viewBox="0 0 24 32" fill="none" xmlns="http://www.w3.org/2000/svg">
<path d="M16.5141 26.5V27C16.5141 29.4849 14.4957 31.4998 12.0004 31.5C9.50501 31.5 7.48578 29.485 7.48578 27V26.5H16.5141ZM12.0004 0.5C17.8171 0.500225 22.5305 5.2022 22.5307 11.0059C22.5307 13.0921 21.921 15.0307 20.8686 16.666L20.6528 16.9893C20.3436 17.4332 20.0213 17.8718 19.6948 18.3164L19.6938 18.3184C18.5407 19.9001 17.318 21.5608 16.6528 23.4941H7.35004C6.69036 21.5628 5.46679 19.8947 4.30609 18.3105H4.30511C3.97859 17.866 3.65627 17.4273 3.34711 16.9834V16.9824L3.13031 16.6602C2.07868 15.03 1.46918 13.0865 1.46918 11C1.46918 5.20246 6.18322 0.5 12.0004 0.5ZM12.0004 3.5C7.84601 3.5 4.47992 6.85379 4.47992 11C4.47992 11.8273 5.15664 12.4998 5.98285 12.5C6.80921 12.5 7.48578 11.8275 7.48578 11C7.48578 8.51496 9.50501 6.5 12.0004 6.5C12.8266 6.49977 13.5024 5.82732 13.5024 5C13.5024 4.17268 12.8266 3.50023 12.0004 3.5Z" stroke="#70E61C"/>
</svg>
